<svg xmlns="http://www.w3.org/2000/svg" id="Layer_1" data-name="Layer 1" viewBox="0 0 857.22 653.08"><defs><style>.cls-1{fill:#e9f1f4;}.cls-2,.cls-7{fill:#6d2c7e;}.cls-16,.cls-20,.cls-21,.cls-3,.cls-4,.cls-9{fill:none;}.cls-11,.cls-13,.cls-17,.cls-18,.cls-19,.cls-20,.cls-3,.cls-7,.cls-8{stroke:#6d2c7e;}.cls-11,.cls-13,.cls-16,.cls-17,.cls-18,.cls-19,.cls-20,.cls-21,.cls-3,.cls-4,.cls-7,.cls-8,.cls-9{stroke-linecap:round;stroke-linejoin:round;}.cls-11,.cls-13,.cls-16,.cls-17,.cls-21,.cls-3,.cls-4,.cls-7,.cls-8,.cls-9{stroke-width:2px;}.cls-4{stroke:#fff;}.cls-5{fill:#ea5033;}.cls-13,.cls-18,.cls-19,.cls-6{fill:#fff;}.cls-8{fill:#efedf4;}.cls-9{stroke:#ea5033;}.cls-10{fill:#383738;}.cls-11{fill:#eee9f4;}.cls-12{fill:#ae8421;}.cls-14{fill:#e0e0e0;isolation:isolate;opacity:0.4;}.cls-15{fill:#eee1f4;}.cls-16{stroke:#383738;}.cls-17{fill:#f7b1a6;}.cls-18{stroke-width:2px;}.cls-19{stroke-width:2px;}.cls-20{stroke-width:2px;}.cls-21{stroke:#ae8421;}</style></defs><g id="Layer_5" data-name="Layer 5"><path class="cls-1" d="M634.16,483.2l-444.73-6.74A24.5,24.5,0,0,1,165.3,452V174.56a24.5,24.5,0,0,1,23.87-24.49l444.73-7A24.5,24.5,0,0,1,659,167.59V458.7A24.5,24.5,0,0,1,634.16,483.2Z"></path><circle class="cls-2" cx="191.43" cy="171.49" r="5.95"></circle><circle class="cls-2" cx="207.29" cy="171.49" r="5.95"></circle><circle class="cls-2" cx="222.59" cy="171.49" r="5.95"></circle><line class="cls-3" x1="180.99" y1="194.47" x2="501.43" y2="190.35"></line><path class="cls-3" d="M549.79,351.85a19.73,19.73,0,0,1-19.74,19.73h-29l-210.29-.08a16.27,16.27,0,0,1-16.25-15.71c0-.19,0-.38,0-.57A16.27,16.27,0,0,1,290.22,339l210.84-5.88,28.34-1a19.73,19.73,0,0,1,20.4,19.19C549.79,351.49,549.79,351.67,549.79,351.85Z"></path><path class="cls-2" d="M549.79,351.85a19.73,19.73,0,0,1-19.74,19.73h-29V333.08l28.34-1a19.73,19.73,0,0,1,20.4,19.19Z"></path><circle class="cls-4" cx="523.21" cy="350.27" r="7.11"></circle><line class="cls-4" x1="528.97" y1="354.42" x2="535.14" y2="359.55"></line><path class="cls-5" d="M348.5,400.41h0a12.44,12.44,0,0,0,12.44,12.44h92.58A12.44,12.44,0,0,0,466,400.41h0A12.44,12.44,0,0,0,453.52,388H360.94A12.43,12.43,0,0,0,348.5,400.41Z"></path><path class="cls-6" d="M243.06,169.89h0a5.91,5.91,0,0,0,6.05,5.91l254.32-1.24V161.87L248.81,164A5.9,5.9,0,0,0,243.06,169.89Z"></path><path class="cls-3" d="M439,278.22c-.85,17-6.17,23.78-31.92,35.56a.19.19,0,0,0-.12,0,.21.21,0,0,0-.12,0C381,302,375.72,295.2,374.87,278.22c-.34-6.74,0-15.08.1-26,15.38-1,29.6-10.31,31.94-13.18,2.34,2.88,16.55,12.22,31.94,13.18C438.92,263.14,439.28,271.48,439,278.22Z"></path><path class="cls-7" d="M439,278.22h-32V239.07c2.34,2.88,16.55,12.22,31.94,13.18C438.92,263.14,439.28,271.48,439,278.22Z"></path><path class="cls-7" d="M406.91,278.22v35.52a.21.21,0,0,0-.12,0C381,302,375.72,295.2,374.87,278.22Z"></path><path class="cls-6" d="M388.06,398.26a4.86,4.86,0,0,1,1.16-3.37,4.54,4.54,0,0,1,6.32,0,4.84,4.84,0,0,1,1.15,3.37v2.39a5.17,5.17,0,0,1-.65,2.68,3.65,3.65,0,0,1-1.84,1.6l.79,2.15c.12.32,0,.53-.26.63l-.39.13a.5.5,0,0,1-.4,0,.47.47,0,0,1-.25-.3l-.84-2.26a2.88,2.88,0,0,1-.48,0A4,4,0,0,1,389.2,404a4.83,4.83,0,0,1-1.15-3.38v-2.39Zm2.22,4.76a2.35,2.35,0,0,0,2.12,1q2.75,0,2.74-3.5v-2.07q0-3.5-2.74-3.49a2.36,2.36,0,0,0-2.12,1,4.49,4.49,0,0,0-.65,2.52v2.07A4.5,4.5,0,0,0,390.28,403Z"></path><path class="cls-6" d="M398.91,397.29a.53.53,0,0,1,.14-.37.46.46,0,0,1,.36-.15h.47a.51.51,0,0,1,.52.52v4.94a2.16,2.16,0,0,0,.34,1.35,1.38,1.38,0,0,0,1.15.43,3.34,3.34,0,0,0,2-.92v-5.8a.53.53,0,0,1,.14-.37.46.46,0,0,1,.36-.15h.47a.51.51,0,0,1,.52.52v7.3a.44.44,0,0,1-.5.5h-.23c-.33,0-.52-.13-.55-.4l-.06-.42a3.76,3.76,0,0,1-2.44,1,2.62,2.62,0,0,1-2-.75,2.93,2.93,0,0,1-.69-2.06v-5.2Z"></path><path class="cls-6" d="M407.59,400.24a3.82,3.82,0,0,1,.92-2.69,3.3,3.3,0,0,1,2.55-1,3.34,3.34,0,0,1,2.56,1,3.78,3.78,0,0,1,.93,2.69v1.37a3.78,3.78,0,0,1-.93,2.69,3.81,3.81,0,0,1-5.11,0,3.83,3.83,0,0,1-.92-2.7Zm3.48,3.76a1.72,1.72,0,0,0,1.52-.64,3.24,3.24,0,0,0,.45-1.88v-1.11c0-1.68-.66-2.52-2-2.52s-2,.84-2,2.52v1.11C409.1,403.16,409.75,404,411.07,404Z"></path><path class="cls-6" d="M417,397.89l-.84-.06c-.33,0-.5-.2-.5-.47v-.15c0-.29.17-.44.5-.44H417v-2.15a.51.51,0,0,1,.52-.52H418a.46.46,0,0,1,.36.15.53.53,0,0,1,.14.37v2.15H420c.33,0,.5.16.5.47v.19c0,.3-.17.45-.5.45h-1.48v4.75c0,.92.4,1.37,1.21,1.37l.66-.05c.31-.06.5,0,.56.32l.06.36a.45.45,0,0,1-.4.58,5.27,5.27,0,0,1-.95.08,2.71,2.71,0,0,1-1.93-.66,2.37,2.37,0,0,1-.7-1.82v-4.92Z"></path><path class="cls-6" d="M422.31,400a3.44,3.44,0,0,1,.9-2.4,3.44,3.44,0,0,1,4.86,0A3.4,3.4,0,0,1,429,400v1a.38.38,0,0,1-.1.26.37.37,0,0,1-.25.1H423.8v.61a2.4,2.4,0,0,0,.46,1.47,1.78,1.78,0,0,0,1.54.63,7.2,7.2,0,0,0,1.95-.29c.35-.09.57,0,.65.32l.08.29a.46.46,0,0,1-.37.61,7.85,7.85,0,0,1-2.29.36,3.35,3.35,0,0,1-2.59-1,3.4,3.4,0,0,1-.91-2.4V400Zm5.2.24v-.32a2.29,2.29,0,0,0-.45-1.42,1.93,1.93,0,0,0-2.8,0,2.29,2.29,0,0,0-.45,1.42v.32Z"></path></g><g id="Layer_10" data-name="Layer 10"><line class="cls-3" x1="390.89" y1="631.61" x2="819.26" y2="631.61"></line><line class="cls-3" x1="10.5" y1="632.2" x2="313.99" y2="632.2"></line></g><g id="Layer_20" data-name="Layer 20"><path class="cls-8" d="M397.18,474.05V527a9.92,9.92,0,0,0,10.08,9.92l136-2.42a9.92,9.92,0,0,0,9.76-9.92V474.05a9.92,9.92,0,0,0-9.92-9.92h-136A9.93,9.93,0,0,0,397.18,474.05Z"></path><path class="cls-3" d="M455.05,507.21c-.23,4.62-1.68,6.46-8.68,9.66h-.06c-7-3.2-8.44-5.05-8.68-9.66-.09-1.83,0-4.1,0-7.06a15.47,15.47,0,0,0,8.68-3.58,15.47,15.47,0,0,0,8.68,3.58C455,503.11,455.14,505.38,455.05,507.21Z"></path><polyline class="cls-9" points="444.05 507.58 446.06 509.59 449.79 504.8"></polyline><polygon class="cls-5" points="424.98 489.28 422.58 489.28 422.58 486.88 419.43 486.88 419.43 489.28 417.03 489.28 417.03 492.43 419.43 492.43 419.43 494.83 422.58 494.83 422.58 492.43 424.98 492.43 424.98 489.28"></polygon><line class="cls-3" x1="428.49" y1="490.73" x2="440.2" y2="490.73"></line><line class="cls-3" x1="415.95" y1="499.56" x2="433.34" y2="499.56"></line><line class="cls-3" x1="415.95" y1="506.59" x2="433.34" y2="506.59"></line><line class="cls-3" x1="415.95" y1="513.62" x2="433.34" y2="513.62"></line><path class="cls-3" d="M446.39,492.19v-9a3.38,3.38,0,0,0-3.38-3.38H415a3.38,3.38,0,0,0-3.38,3.38v34.05a3.38,3.38,0,0,0,3.38,3.38h31.41"></path><rect class="cls-3" x="422.3" y="479.79" width="14.72" height="3.1"></rect><line class="cls-3" x1="473.49" y1="491.77" x2="531.83" y2="491.77"></line><line class="cls-3" x1="473.49" y1="508.23" x2="531.83" y2="508.23"></line></g><g id="Layer_23" data-name="Layer 23"><path class="cls-8" d="M80.79,242.82v52.95a9.92,9.92,0,0,0,10.08,9.92l149.45-2.42a9.92,9.92,0,0,0,9.76-9.92V242.82a9.92,9.92,0,0,0-9.92-9.92H90.71A9.93,9.93,0,0,0,80.79,242.82Z"></path><path class="cls-3" d="M156.9,272.56c-.3,5.9-2.14,8.26-11.08,12.35h-.08c-8.94-4.09-10.79-6.45-11.08-12.35-.12-2.34,0-5.24,0-9C140,263.21,145,260,145.79,259c.81,1,5.75,4.24,11.09,4.58C156.89,267.32,157,270.22,156.9,272.56Z"></path><polyline class="cls-9" points="142.84 273.03 145.4 275.6 150.17 269.48"></polyline><line class="cls-3" x1="145.12" y1="259.05" x2="99.87" y2="259.05"></line><line class="cls-3" x1="133.08" y1="283.78" x2="99.87" y2="283.78"></line><line class="cls-3" x1="99.78" y1="283.41" x2="99.78" y2="259.11"></line><circle class="cls-9" cx="122.31" cy="271.07" r="5.98"></circle><circle class="cls-5" cx="111.09" cy="271.07" r="1.87"></circle><path class="cls-2" d="M107.72,261.15a4.86,4.86,0,0,1-8.07,3.65v-5.75h7.59A4.83,4.83,0,0,1,107.72,261.15Z"></path><path class="cls-2" d="M107.72,280.79a4.85,4.85,0,0,1-1,3h-7v-6.64a4.78,4.78,0,0,1,3.21-1.21A4.86,4.86,0,0,1,107.72,280.79Z"></path><line class="cls-3" x1="171.31" y1="260.54" x2="229.65" y2="260.54"></line><line class="cls-3" x1="171.31" y1="277" x2="229.65" y2="277"></line></g><g id="Layer_24" data-name="Layer 24"><path class="cls-8" d="M705.33,244.56l-189.18,2.6a12,12,0,0,1-12.43-12V98.32a12,12,0,0,1,12-12H704.91a12,12,0,0,1,12,12V232.56A12,12,0,0,1,705.33,244.56Z"></path><circle class="cls-2" cx="519.38" cy="99.25" r="4.44"></circle><circle class="cls-2" cx="531.23" cy="99.25" r="4.44"></circle><circle class="cls-2" cx="542.66" cy="99.25" r="4.44"></circle><line class="cls-3" x1="503.71" y1="112.5" x2="705.66" y2="112.5"></line><path class="cls-3" d="M541.58,156v11.36a14.34,14.34,0,0,0,14.34,14.34h0a14.34,14.34,0,0,0,14.34-14.34V159"></path><circle class="cls-2" cx="549.84" cy="163.67" r="1.68"></circle><circle class="cls-2" cx="561.77" cy="163.67" r="1.68"></circle><path class="cls-3" d="M555.38,163.88s-3.4,3.35-1.7,5.47,4.43,0,4.43,0"></path><path class="cls-3" d="M570.81,170.53a4.2,4.2,0,0,0,4.27-1.27,5.52,5.52,0,0,0,.53-6.34,3.51,3.51,0,0,0-5.34-.63"></path><path class="cls-3" d="M541,170.53a4.2,4.2,0,0,1-4.27-1.27,5.52,5.52,0,0,1-.53-6.34,3.51,3.51,0,0,1,5.34-.63"></path><path class="cls-10" d="M552.42,149.15c-1.81,4.27-9.1,7.47-13.09,7.46a1,1,0,0,1-1.14-.74c-3.85-8,4.82-19,11.82-13.76"></path><path class="cls-10" d="M548.11,144.14c8-13.66,27.9-3.64,26.19,10.29a5,5,0,0,1-1,2.37s0,0,0,0a4.94,4.94,0,0,1-2.2,1.74c-8.16,3.08-18.74-4.41-21.1-8.82"></path><polygon class="cls-5" points="548.08 182.07 555.69 188.45 563.47 182.07 565.78 183.91 561.36 194.24 555.92 189.83 550.66 194.24 546.07 183.17 548.08 182.07"></polygon><path class="cls-3" d="M543.73,184.69c-12.22,2.72-18.85,13.07-18.48,25.48"></path><path class="cls-3" d="M568.55,184.69a24.2,24.2,0,0,1,7.22,2.84,21.9,21.9,0,0,1,3.75,2.82"></path><line class="cls-3" x1="555.92" y1="192.9" x2="555.92" y2="212.08"></line><rect class="cls-3" x="535.46" y="200.95" width="11.42" height="3.31"></rect><path class="cls-3" d="M603.16,200.52c-.32,6.3-2.29,8.82-11.84,13.19h-.08c-9.55-4.37-11.53-6.89-11.84-13.19-.12-2.5,0-5.59,0-9.63,5.71-.36,11-3.82,11.85-4.89.87,1.07,6.14,4.53,11.85,4.89C603.14,194.93,603.28,198,603.16,200.52Z"></path><polyline class="cls-9" points="588.14 201.03 590.88 203.77 595.97 197.23"></polyline><line class="cls-3" x1="614.43" y1="143.84" x2="687.73" y2="143.84"></line><line class="cls-3" x1="614.43" y1="162.55" x2="687.73" y2="162.55"></line><line class="cls-3" x1="614.43" y1="180.5" x2="687.73" y2="180.5"></line><line class="cls-3" x1="614.43" y1="199.2" x2="687.73" y2="199.2"></line><path class="cls-11" d="M551.64,173.29a5.77,5.77,0,0,0,3.59,1.79,5.94,5.94,0,0,0,5.38-2.69"></path></g><g id="Layer_21" data-name="Layer 21"><path class="cls-12" d="M657.26,448.37l31.17-7s23,27.95,19.42,47c-4.77,25.61-25.32,55.22-25.08,55.48s10.69,1.69,12.77,19.81S700,617.87,700,617.87l-7.48.75S665,566.94,658.26,549.74c-4.64-11.78,5-32.87,5-32.87l3.1-12-33.66,35.16s12.08,8.32,12,25.76.39,52,.39,52l-9.4,1.5s-25.8-73.79-25.22-84.15,14.64-33.65,15.55-34.69S657.26,448.37,657.26,448.37Z"></path><path class="cls-6" d="M647.49,347s-9,22.8-4.13,28.57c6.44,7.59,17.71,6.55,17.71,6.55l1.28,8.21L648.9,407.94a25.76,25.76,0,0,0-5.38,12.84h0l16.91,24.59,27-2s.62-10.65,0-24.92a70.07,70.07,0,0,0-4.18-20.73C680.79,391,678.17,384.07,678,383c-1.32-8.88-2.63-21.43-2.82-22.43-.26-1.4,1.4-17.44,1.4-17.44l-10.29-.46"></path><path class="cls-3" d="M661.9,493h8.68l-12,39.05A29.14,29.14,0,0,0,660,556.48l32.51,62.15"></path><path class="cls-3" d="M635.65,619.37s-30.89,8.51-21,10.52,24-2.47,24-2.47v3.17h8.23l-.75-6.16"></path><path class="cls-3" d="M691,619.19s-24.9,8.69-15.07,10.7A29.11,29.11,0,0,0,694,627.42v3.17h8.23l-.75-6.16"></path><path class="cls-3" d="M687.19,440.58l0-17.9a64.94,64.94,0,0,0-3.51-22.38"></path><path class="cls-13" d="M655.84,400.93s-19.05,17.26-10.08,25.55c6.34,5.87,9,8.48,9,8.48l3.91,9.63"></path><polygon class="cls-2" points="658.46 443.2 686.89 439.46 691.94 444.99 656.49 449.91 658.46 443.2"></polygon><path class="cls-3" d="M646.92,349.7,642.26,364a13.4,13.4,0,0,0,8,17.18l1,.38a21.12,21.12,0,0,0,9.65,1.15h0"></path><circle class="cls-2" cx="659.22" cy="359.22" r="1.12"></circle><circle class="cls-2" cx="649.44" cy="356.76" r="1.12"></circle><path class="cls-3" d="M652.39,360.61s-5,2.88-4.9,4.73,4.69,2.33,4.69,2.33"></path><path class="cls-10" d="M648.45,347.51c6.21,2.26,14.92,2.22,17.7.88C665.76,354.62,664.23,370,682,365c15.84-4.38,1.47-42.57-17.12-30.9C658,320.19,633.89,339.93,648.45,347.51Z"></path><path class="cls-10" d="M713.07,336.12a17.52,17.52,0,0,1-17.52,17.52c-9.67,0-13.14-7-13.14-16.65s3.46-18.4,13.14-18.4A17.52,17.52,0,0,1,713.07,336.12Z"></path><path class="cls-5" d="M680.39,385.66c-3.09.39-18.11,2.44-20.77,2.81a.61.61,0,0,0-.51.45L657.18,396a.62.62,0,0,0,.63.78l25.29-1.41a.61.61,0,0,0,.55-.8L681,386.09A.58.58,0,0,0,680.39,385.66Z"></path><line class="cls-3" x1="661.08" y1="382.98" x2="661.83" y2="385.22"></line><line class="cls-3" x1="676.04" y1="374" x2="677.89" y2="382.81"></line><polyline class="cls-2" points="644.42 419.89 587.02 383.58 580.29 394.95 643.52 434.23"></polyline><path class="cls-13" d="M678.29,402.43h0a14.67,14.67,0,0,0-14.08-2.08,19.42,19.42,0,0,0-3.4,1.73,29.78,29.78,0,0,0-8.23,7.85c-7.48,10.47-18.72,26.95-17.32,29.61,1.76,3.34,6.55-1.62-2.1-12.57-4.1-5.2-11.28-9.66-11.28-9.66l-4.72,4.47L631.55,444c4.94,7.26,12.28,9.2,16.69,2.64l26.44-29.35"></path><path class="cls-13" d="M612,414.7c-1.73-1.3-1.3-5.68-1.3-5.68a11.25,11.25,0,0,1-4.56-1.71c-2.26-1.48,3.83-4,9,1.11s6.78,8.89,6.78,8.89l-4.72,4.47s-7-1-10.74-3-6.31-11.38-6.31-11.38"></path><path class="cls-2" d="M522.31,276a77.42,77.42,0,1,0,77.42,77.42A77.42,77.42,0,0,0,522.31,276Zm0,145.12a67.7,67.7,0,1,1,67.7-67.7A67.7,67.7,0,0,1,522.31,421.13Z"></path><circle class="cls-14" cx="522.31" cy="353.45" r="60.23"></circle><path class="cls-2" d="M522.31,278a75.48,75.48,0,1,0,75.48,75.48A75.48,75.48,0,0,0,522.31,278Zm0,141.17a65.7,65.7,0,1,1,65.7-65.7A65.71,65.71,0,0,1,522.31,419.13Z"></path><path class="cls-13" d="M675.6,365.12a5.25,5.25,0,0,1,5.28.74c2.29,2.21,1.16,7.42-1.89,8.42-1.86.61-4.28-.4-5.81-2.52"></path><path class="cls-3" d="M678.64,368.73a3.15,3.15,0,0,0-3.44.83"></path><path class="cls-3" d="M649.8,370.57a6.08,6.08,0,0,0,9.86-1.8"></path><line class="cls-3" x1="661.83" y1="390.66" x2="661.45" y2="394.5"></line><line class="cls-3" x1="666.32" y1="389.91" x2="666.69" y2="393.75"></line><line class="cls-3" x1="671.55" y1="389.16" x2="671.93" y2="393"></line><line class="cls-3" x1="676.04" y1="388.42" x2="677.16" y2="393"></line></g><g id="Layer_12" data-name="Layer 12"><path class="cls-6" d="M752,288.07s-4.47,32.2,2.69,36.76,8.78,3.78,10.44,3.91a19.76,19.76,0,0,0,3,0l2.15,9.12-.91,3.28s-22.9,2-33.83,22.23-26.39,48.32-17.32,63.4,29.8,2.86,33.79,0,3.27,5.57,3.27,5.57l52.36-1.5,5.24-31.42,9,16-19.55,42.08,13.46,6.63,1.31-5.14s22.68-26.31,24.71-37.86,4.8-13.22-3.31-31.22-10.82-27-21.57-35.49-19.61-12.41-24.6-14.05-4.53-2.08-4.53-2.08l-3-20.31s6.48,1,4.82-5.7a4.73,4.73,0,0,0-4.48-3.59V295.23"></path><polygon class="cls-15" points="755.45 430.86 807.7 428.61 810.23 442.22 806.39 453.75 815.93 462.28 812.19 618.57 797.23 617.87 781.7 485.76 771.26 529.57 764 619.31 748.6 619.31 741.87 516.14 755.45 430.86"></polygon><path class="cls-3" d="M764,397.5s8.55-7,12.44-8.94,5-2.72,8.16,1.94,4.85,5.44,4.37,8.36-2.79,9.08-4,9.11-5.54-.69-5.11-2.08a3,3,0,0,1,2-1.79"></path><path class="cls-3" d="M783.81,404.1s-2.87-1.61-5.44,0c-6.22,3.89-8.94,0-8.94,0"></path><path class="cls-3" d="M784.59,392.83a32.56,32.56,0,0,1,4.27,5.44"></path><path class="cls-3" d="M784.1,396a27.11,27.11,0,0,1,4.38,4.24"></path><path class="cls-3" d="M782.2,398.78a10.47,10.47,0,0,1,5.33,4.53"></path><polyline class="cls-3" points="771.11 460.45 779.8 460.45 797.23 618.62"></polyline><line class="cls-3" x1="812.94" y1="399.44" x2="807.7" y2="428.61"></line><polyline class="cls-3" points="778.53 498.18 771.05 528.85 764 619.31"></polyline><path class="cls-5" d="M768.07,332.18,786,329.39a1.9,1.9,0,0,1,2.17,1.56l2.13,12.16a1.94,1.94,0,0,1-.2,1.23L777.32,368a1.91,1.91,0,0,1-3.48-.28l-6.09-17.44a2.05,2.05,0,0,1-.1-.48l-1.19-15.63A1.91,1.91,0,0,1,768.07,332.18Z"></path><path class="cls-3" d="M794.7,341.15c30.9,9.84,43.36,42,48.73,65.67,3.93,17.31-18.37,40.76-27.49,54"></path><path class="cls-3" d="M809.2,389s12.72,32.91,19,31.89c5.76-.95-2.83-11.68-7.28-4s-14.12,35.75-14.12,35.75"></path><line class="cls-3" x1="769.82" y1="334.59" x2="771.11" y2="342.7"></line><line class="cls-3" x1="774.49" y1="333.81" x2="775.78" y2="341.92"></line><line class="cls-3" x1="779.15" y1="333.04" x2="780.44" y2="341.15"></line><line class="cls-3" x1="784.2" y1="332.26" x2="785.49" y2="340.37"></line><path class="cls-3" d="M764,342.7s-20.21-.78-37.7,37.31c-14.26,31.05-11.67,44.58-5,50.51,18.65,16.72,45.86-18.65,45.86-18.65"></path><path class="cls-3" d="M727.85,407.21s4.66-3.89,22.93-7.53c14.4-2.87,12.82-3,12.82-3l5.83,12"></path><polyline class="cls-3" points="776.43 388.56 768.27 363.38 733.53 375.97 741.2 400.79"></polyline><path class="cls-3" d="M751.05,297.66v18.08a13,13,0,0,0,13,13h1.09a20.5,20.5,0,0,0,9.19-2.17h0"></path><path class="cls-2" d="M777.59,295.49c-3.68-1.64-26.56,6.63-34.34-9-5.06-13.74,6.15-15.55,8.32-9.4S753,280.3,753,280.3c-4.59-14.32,12.23-15.83,11.57-2.89,6.67-10.13,13.43-2.49,9,5,12.33-12.36,28.47,6.72,11.65,22.81-6.91-.72-8.48-2.56-7.61-9.76"></path><path class="cls-3" d="M782.65,310a5.1,5.1,0,0,1,5.06-1.08c2.82,1.25,3.53,6.39,1.08,8.31-1.49,1.18-4,1.06-6.15-.36"></path><path class="cls-3" d="M786.63,312.24a3.06,3.06,0,0,0-2.86,1.91"></path><circle class="cls-2" cx="767.11" cy="306.69" r="1.08"></circle><circle class="cls-2" cx="755.18" cy="306.69" r="1.08"></circle><circle class="cls-16" cx="751.93" cy="306.69" r="6.51"></circle><circle class="cls-16" cx="768.92" cy="307.06" r="6.51"></circle><line class="cls-16" x1="758.43" y1="306.69" x2="762.41" y2="306.69"></line><path class="cls-3" d="M759.16,309.22s-3.62,4.3-2.89,5.95,5.06.56,5.06.56"></path><path class="cls-2" d="M802.53,382.73H788.24a2.19,2.19,0,0,1-2.18-2.18h0a2.19,2.19,0,0,1,2.18-2.18h14.29a2.19,2.19,0,0,1,2.18,2.18h0A2.18,2.18,0,0,1,802.53,382.73Z"></path><polyline class="cls-2" points="754.28 426.78 754.28 433.14 808.44 433.14 809.12 426.78 754.28 426.78"></polyline><polyline class="cls-3" points="755.34 432.35 741.87 516.14 748.6 619.37 755.45 619.31"></polyline><path class="cls-3" d="M802.46,440.58a22.15,22.15,0,0,0,2.24,11.22,22.59,22.59,0,0,0,11.22,10.47l-3.74,156.29"></path><path class="cls-3" d="M748.6,619.37s-24.9,8.69-15.07,10.7,24.05-2.47,24.05-2.47l1.5,3.17h6.73l-.75-6.16"></path><path class="cls-3" d="M813.9,625.71c-3.87-9.13-15.64-9.27-19,.34a3.42,3.42,0,0,0,1.19,3.88c4.31,2.9,12.36,1.41,16.08.2A3.3,3.3,0,0,0,813.9,625.71Z"></path><path class="cls-2" d="M761,319.46a6.36,6.36,0,0,0,6.28,1.79,6.77,6.77,0,0,0,4.48-4.48"></path></g><g id="Layer_11" data-name="Layer 11"><path class="cls-6" d="M147.22,353.08S144.84,361,147,368.8c2.46,8.94,2.44,17.91-7.41,19.7s-13.77-1.32-14.35,4.48.9,7.17.9,7.17l-16-1.56-1.89-11,2.69-36.76,15.87-7.35"></path><path class="cls-13" d="M201.07,474.54c-5.12-12.08-7.12-10.26-18.62-13.6-1-1.59-24.46-13.36-29.13-20.63l-3.85-14.67-14.19,6.62c0,7,5.69,25.32,12.3,28.39,6.28,2.43,30.84,13,37.18,13.41,8.72,5.35,10.22,5.84,5.23-2.86l6.07,6.7Z"></path><path class="cls-11" d="M153.75,486.4l19.79-1.75c12.08-1.07,28.57,7.05,30.59,24.44a29.93,29.93,0,0,1,.07,5.52l-6.49,93.3-22.28.85Z"></path><path class="cls-13" d="M177.63,605.9l.84,26H226.1v-4.13a12.16,12.16,0,0,0-11.92-12.16L198,615.28l-.31-8.91Z"></path><path class="cls-13" d="M169.37,605l2.8,26.92h42.58a16,16,0,0,0-15.07-16l-9.91-.6-1.26-13Z"></path><path class="cls-11" d="M189.27,606.65H169.33c-26-57.06-24.65-79.29-25.78-82.76l-36.67-.21c-10.53.5-26.61,1.66-35.32-5.8C61.92,506,64.4,488.42,76.46,479l3.25-6.21c72,8.19,92.53,8.78,101,32.28C189.2,528.77,189.27,606.65,189.27,606.65Z"></path><path class="cls-17" d="M152.6,427.36,150,418.44a34.56,34.56,0,0,0-11.95-17.67c-2.9-2.81-7-4.64-12.28-5.41l-4.73,14.19L101.2,393.46c-30.6,6.25-22.76,30.57-18,53-3.78.95-14.19,23.66,0,28.39A126.87,126.87,0,0,0,117,481.07c8.26.29,21.14.39,25.87-6.23,11.35-12.3-3.69-23.52,0-30.28,2.77-5.07,4.19-9.64,4.27-14.26l4.2-.83A1.66,1.66,0,0,0,152.6,427.36Z"></path><polyline class="cls-13" points="125.65 395.02 125.8 416.17 104.98 394.41"></polyline><rect class="cls-13" x="168.7" y="471.72" width="31.11" height="6.14"></rect><path class="cls-13" d="M253.66,477.86h-62.5l25.74-49.23a10.68,10.68,0,0,1,9.46-5.73h50.29a3.48,3.48,0,0,1,3.08,5.09Z"></path><path class="cls-5" d="M109.94,364.24c6.55-.21,11.61-3.54,13.76-13,0,0,15.26,13.16,22.73,6.13,6.26-5.89-4.36-19.43-22-21a24.9,24.9,0,0,0-17.81,5.43c-8.52,6.83-9.34,22.71-1.37,28.21Z"></path><path class="cls-2" d="M132,365.76a1.3,1.3,0,1,1-1.29-1.43A1.37,1.37,0,0,1,132,365.76Z"></path><path class="cls-2" d="M141.85,365.87a1.15,1.15,0,1,1-1-1.4A1.22,1.22,0,0,1,141.85,365.87Z"></path><path class="cls-5" d="M102.28,347.18c-19.58,45.33,5.31,51.4,8.7,85.09-2.69,18.85-13.26,25.14,2.46,20.4,29.45-16-7.73-58-1-81.33,3.95-14.13,1.52-15.73,1.52-15.73"></path><path class="cls-13" d="M176.05,471l-.9-.46.2-.39.9.46Z"></path><path class="cls-13" d="M184.33,473.05c-.64,1.27-8-2.59-10.31-3.72,1.78,1,7.28,4.54,5.91,5.61-1.1.85-3.52-.95-11.48-4.25,16.1,8.34-.29,5.26-3.8,3.56-7.83,4.43-6.74,4-15.63,3.9-2.53.19-40.26,10-49.72-9-.78-1.57-10.41-29.33-10.41-29.33l21.76-7.57,6.46,19.05c1,2.05,3.2,2.95,5.76,3.46,5.85,1.17,33.4,11.32,33.4,11.32s12.52-4.49,15.07-3.45C177.23,465,184.43,471,184.33,473.05Z"></path><rect class="cls-13" x="90.45" y="532.27" width="1.1" height="94.31"></rect><path class="cls-13" d="M117.36,536.45H64.63A6.49,6.49,0,0,1,58.14,530h0a6.49,6.49,0,0,1,6.49-6.49h52.73a6.49,6.49,0,0,1,6.49,6.49h0A6.48,6.48,0,0,1,117.36,536.45Z"></path><path class="cls-13" d="M113.18,632.71H68.82v-1.07a9.75,9.75,0,0,1,9.75-9.75h24.85a9.75,9.75,0,0,1,9.75,9.75v1.07Z"></path><rect class="cls-18" x="200.55" y="470.42" width="1.1" height="175.19" transform="translate(-266.72 193.37) rotate(-32.25)"></rect><rect class="cls-19" x="113.47" y="557.45" width="175.18" height="1.1" transform="translate(-378.12 430.15) rotate(-57.74)"></rect><path class="cls-13" d="M283,490.21H119.18a12.35,12.35,0,0,1,12.35-12.35H270.61A12.35,12.35,0,0,1,283,490.21Z"></path><path class="cls-3" d="M125,391.34c-.09.23-1-1.52,7-1.55,24.09-.11,13.44-18.13,14.35-29.61"></path><path class="cls-13" d="M137.08,368.8c3.64,3.25,4.26,7.22-1.83,5.52"></path><path class="cls-13" d="M114.47,364.46c-3.24-2.27-7.44-1.74-9.57.8-1.54,1.83-2.28,4.87-.8,7.17,1.64,2.55,5.51,3.48,8.77,1.59"></path><path class="cls-13" d="M106.89,368.05a6.1,6.1,0,0,1,4,0,6,6,0,0,1,2.39,1.59"></path><path class="cls-3" d="M90.45,439.34l-1.94.63a2.3,2.3,0,0,1-2.92-1.53l-3.31-10.91"></path><path class="cls-13" d="M104,462.54a5.21,5.21,0,0,0,.95,2.84c1.45,2,4.47,2.77,7.57,1.89"></path><polyline class="cls-3" points="130.75 396.49 136.94 407.42 130.41 410.08 129.27 415.3"></polyline><path class="cls-3" d="M141.86,411.77l1,6.29a21.7,21.7,0,0,1,3.79,8.52c1.36,5.68,0,7.57,0,7.57"></path><circle class="cls-5" cx="126.75" cy="421.85" r="1.89"></circle><circle class="cls-5" cx="129.59" cy="431.31" r="1.89"></circle><circle class="cls-5" cx="129.59" cy="442.67" r="1.89"></circle><line class="cls-3" x1="143.55" y1="523.9" x2="149.27" y2="523.9"></line><path class="cls-3" d="M92.68,483.35A14.5,14.5,0,0,1,89.84,490c-4.88,6.23-13.28,5.74-14.19,5.68"></path><polyline class="cls-13" points="170.63 617.09 178.15 621.89 189.77 615.27"></polyline><ellipse class="cls-20" cx="239.8" cy="448.39" rx="5.68" ry="4.26" transform="translate(-268.61 456.94) rotate(-62.83)"></ellipse><path class="cls-13" d="M125.23,376.84a6.14,6.14,0,0,0,2.69,2.69,6.47,6.47,0,0,0,5.38,0"></path><path class="cls-13" d="M126.56,374.74a3.13,3.13,0,0,1-1.24,1.95,3.18,3.18,0,0,1-2.6.45"></path></g><g id="Layer_16" data-name="Layer 16"><path class="cls-21" d="M726.33,44.36l-2.59,11.83a1.33,1.33,0,0,0,1.66,1.57L737,54.47a1.33,1.33,0,0,0,.55-2.25l-9-8.54A1.32,1.32,0,0,0,726.33,44.36Z"></path><path class="cls-3" d="M122,119l-2.59,11.83a1.33,1.33,0,0,0,1.66,1.57l11.59-3.29a1.33,1.33,0,0,0,.55-2.25l-9-8.54A1.32,1.32,0,0,0,122,119Z"></path><path class="cls-9" d="M771,229.33,765,232a.72.72,0,0,0-.16,1.22l5.11,4a.72.72,0,0,0,1.16-.47l.88-6.64A.71.71,0,0,0,771,229.33Z"></path><path class="cls-3" d="M456.23,111.86l-6,2.62a.72.72,0,0,0-.16,1.22l5.11,4a.72.72,0,0,0,1.16-.47l.88-6.64A.72.72,0,0,0,456.23,111.86Z"></path><circle class="cls-9" cx="61.5" cy="356.8" r="5.32"></circle><circle class="cls-21" cx="263.77" cy="25.79" r="9.42"></circle><circle class="cls-21" cx="263.58" cy="581.56" r="9.23"></circle><circle class="cls-3" cx="716.09" cy="546.9" r="5.32"></circle></g></svg>